<?xml version="1.0" standalone="no"?>
<!DOCTYPE svg PUBLIC "-//W3C//DTD SVG 20010904//EN"
 "http://www.w3.org/TR/2001/REC-SVG-20010904/DTD/svg10.dtd">
<svg version="1.0" xmlns="http://www.w3.org/2000/svg"
 width="300.000000pt" height="300.000000pt" viewBox="0 0 300.000000 300.000000"
 preserveAspectRatio="xMidYMid meet">
<metadata>
Created by potrace 1.11, written by Peter Selinger 2001-2013
</metadata>
<g transform="translate(0.000000,300.000000) scale(0.100000,-0.100000)"
fill="#000000" stroke="none">
<path d="M650 2417 c0 -10 16 -17 48 -22 100 -14 174 -70 203 -152 20 -56 20
-1350 0 -1406 -29 -82 -103 -138 -203 -152 -32 -5 -48 -12 -48 -22 0 -12 80
-14 603 -10 656 4 662 5 783 64 204 100 289 391 180 620 -72 150 -201 242
-381 268 -25 4 -45 11 -45 16 0 5 5 9 10 9 6 0 40 15 77 32 135 66 211 181
220 332 13 198 -87 345 -277 408 -63 22 -79 23 -617 26 -476 3 -553 1 -553
-11z m915 -51 c227 -71 310 -447 139 -635 -72 -81 -159 -109 -356 -118 l-138
-6 0 393 0 393 153 -6 c96 -3 171 -11 202 -21z m90 -818 c28 -8 73 -27 101
-41 221 -112 263 -530 71 -703 -140 -127 -417 -153 -534 -51 -20 18 -46 52
-57 77 -20 42 -21 65 -24 394 l-3 348 198 -5 c129 -3 215 -10 248 -19z"/>
</g>
</svg>
